<?xml version="1.0" standalone="no"?>
<!DOCTYPE svg PUBLIC "-//W3C//DTD SVG 20010904//EN"
 "http://www.w3.org/TR/2001/REC-SVG-20010904/DTD/svg10.dtd">
<svg version="1.0" xmlns="http://www.w3.org/2000/svg"
 width="200.000000pt" height="200.000000pt" viewBox="0 0 200.000000 200.000000"
 preserveAspectRatio="xMidYMid meet">

<g transform="translate(0.000000,200.000000) scale(0.100000,-0.100000)"
fill="#000000" stroke="none">
<path d="M344 1709 c-59 -17 -126 -71 -158 -129 l-31 -55 0 -395 c0 -388 0
-396 22 -436 30 -56 79 -103 133 -128 40 -19 69 -22 279 -26 l234 -5 71 -114
c77 -124 95 -142 124 -125 9 6 49 62 88 125 l71 114 234 5 c210 4 239 7 279
26 54 25 103 72 133 128 22 40 22 48 22 436 l0 395 -31 55 c-33 60 -99 112
-162 130 -47 13 -1264 12 -1308 -1z m458 -356 c47 -42 53 -68 53 -243 l0 -165
-46 -3 -47 -3 -4 157 c-4 147 -5 158 -26 174 -17 14 -22 29 -22 68 l0 50 36
-8 c19 -5 45 -16 56 -27z m-362 -53 c0 -44 2 -80 5 -80 3 0 17 7 31 16 34 23
107 14 141 -17 55 -51 71 -155 33 -217 -39 -64 -144 -89 -192 -45 -17 15 -18
15 -18 -1 0 -14 -8 -17 -52 -14 l-53 3 -3 205 c-1 112 0 210 2 217 4 8 24 13
56 13 l50 0 0 -80z m750 -72 c55 -29 84 -75 84 -138 0 -96 -68 -155 -179 -155
-72 0 -114 22 -144 75 -82 147 83 297 239 218z m340 7 c17 -9 30 -11 30 -5 0
5 22 10 50 10 l50 0 0 -177 c0 -159 -2 -181 -20 -210 -23 -39 -64 -61 -125
-70 l-46 -6 3 49 c3 46 5 49 37 55 39 8 51 23 51 62 0 27 -1 28 -22 13 -31
-22 -106 -20 -144 3 -63 38 -83 166 -37 230 40 55 117 75 173 46z"/>
<path d="M466 1139 c-35 -28 -35 -70 0 -98 15 -12 32 -21 39 -21 27 0 65 41
65 70 0 29 -38 70 -65 70 -7 0 -24 -9 -39 -21z"/>
<path d="M1072 1150 c-63 -26 -37 -130 33 -130 22 0 65 45 65 68 0 44 -55 79
-98 62z"/>
<path d="M1470 1147 c-19 -10 -26 -21 -28 -53 -3 -44 7 -58 50 -69 21 -5 33
-1 52 19 33 32 33 60 1 91 -27 28 -39 30 -75 12z"/>
</g>
</svg>
